<svg xmlns="http://www.w3.org/2000/svg" width="1090" height="560" viewBox="0 0 1090 560" font-family="Helvetica, Arial, sans-serif" font-size="12">
<defs><marker id="arrow" viewBox="0 0 10 10" refX="9" refY="5" markerWidth="8" markerHeight="8" orient="auto-start-reverse"><path d="M0,0 L10,5 L0,10 z" fill="#444"/></marker></defs>
<rect width="1090" height="560" fill="#ffffff"/>
<rect x="30" y="30" width="260" height="60" rx="6" fill="#f8cecc" stroke="#b85450"/>
<text x="160.0" y="49.0" text-anchor="middle" font-size="12" font-weight="bold" fill="#222">CDN / edge</text>
<text x="160.0" y="64.0" text-anchor="middle" font-size="12" font-weight="normal" fill="#222">TLS · static web build · cached reference data</text>
<text x="160.0" y="79.0" text-anchor="middle" font-size="12" font-weight="normal" fill="#222">edge rate rules</text>
<rect x="30" y="130" width="260" height="44" rx="6" fill="#d5e8d4" stroke="#82b366"/>
<text x="160.0" y="156.0" text-anchor="middle" font-size="12" font-weight="normal" fill="#222">Load balancer</text>
<rect x="30" y="230" width="260" height="70" rx="6" fill="#d5e8d4" stroke="#82b366"/>
<text x="160.0" y="254.0" text-anchor="middle" font-size="12" font-weight="bold" fill="#222">API × N (stateless)</text>
<text x="160.0" y="269.0" text-anchor="middle" font-size="12" font-weight="normal" fill="#222">JOBS=off · TRUST_PROXY=1</text>
<text x="160.0" y="284.0" text-anchor="middle" font-size="12" font-weight="normal" fill="#222">rate limit counted in Redis</text>
<rect x="30" y="360" width="260" height="70" rx="6" fill="#d5e8d4" stroke="#82b366"/>
<text x="160.0" y="384.0" text-anchor="middle" font-size="12" font-weight="bold" fill="#222">Status stream (SSE)</text>
<text x="160.0" y="399.0" text-anchor="middle" font-size="12" font-weight="normal" fill="#222">one connection per open dashboard</text>
<text x="160.0" y="414.0" text-anchor="middle" font-size="12" font-weight="normal" fill="#222">fed by Postgres LISTEN/NOTIFY</text>
<rect x="30" y="470" width="260" height="62" rx="0" fill="#f5f5f5" stroke="#999999"/>
<text x="38" y="486" font-size="11" fill="#333">Observability: logs from stdout, request and</text>
<text x="38" y="501" font-size="11" fill="#333">job metrics, queue depth from /api/health,</text>
<text x="38" y="516" font-size="11" fill="#333">external-call error rate, alerts on each.</text>
<rect x="380" y="230" width="260" height="70" rx="6" fill="#d5e8d4" stroke="#82b366"/>
<text x="510.0" y="254.0" text-anchor="middle" font-size="12" font-weight="bold" fill="#222">Workers × M</text>
<text x="510.0" y="269.0" text-anchor="middle" font-size="12" font-weight="normal" fill="#222">the same image, npm run worker</text>
<text x="510.0" y="284.0" text-anchor="middle" font-size="12" font-weight="normal" fill="#222">one of them owns the OSM calls</text>
<path d="M380,370 a130.0,10 0 1,1 260,0 v60 a130.0,10 0 1,1 -260,0 z" fill="#fff2cc" stroke="#d6b656"/><ellipse cx="510.0" cy="370" rx="130.0" ry="10" fill="#fff2cc" stroke="#d6b656"/>
<text x="510.0" y="395.0" text-anchor="middle" font-size="12" font-weight="bold" fill="#222">Redis</text>
<text x="510.0" y="410.0" text-anchor="middle" font-size="12" font-weight="normal" fill="#222">rate-limit counters</text>
<text x="510.0" y="425.0" text-anchor="middle" font-size="12" font-weight="normal" fill="#222">shared outbound bucket</text>
<rect x="380" y="470" width="260" height="62" rx="6" fill="#f8cecc" stroke="#b85450"/>
<text x="510.0" y="490.0" text-anchor="middle" font-size="12" font-weight="bold" fill="#222">Geo data</text>
<text x="510.0" y="505.0" text-anchor="middle" font-size="12" font-weight="normal" fill="#222">self-hosted Overpass + Nominatim,</text>
<text x="510.0" y="520.0" text-anchor="middle" font-size="12" font-weight="normal" fill="#222">or Google with a budget</text>
<path d="M730,240 a90.0,10 0 1,1 180,0 v24 a90.0,10 0 1,1 -180,0 z" fill="#fff2cc" stroke="#d6b656"/><ellipse cx="820.0" cy="240" rx="90.0" ry="10" fill="#fff2cc" stroke="#d6b656"/>
<text x="820.0" y="262.0" text-anchor="middle" font-size="12" font-weight="normal" fill="#222">PgBouncer</text>
<path d="M730,310 a90.0,10 0 1,1 180,0 v80 a90.0,10 0 1,1 -180,0 z" fill="#fff2cc" stroke="#d6b656"/><ellipse cx="820.0" cy="310" rx="90.0" ry="10" fill="#fff2cc" stroke="#d6b656"/>
<text x="820.0" y="345.0" text-anchor="middle" font-size="12" font-weight="bold" fill="#222">Postgres primary</text>
<text x="820.0" y="360.0" text-anchor="middle" font-size="12" font-weight="normal" fill="#222">+ PostGIS</text>
<text x="820.0" y="375.0" text-anchor="middle" font-size="12" font-weight="normal" fill="#222">queue · markets · cache</text>
<path d="M730,450 a90.0,10 0 1,1 180,0 v60 a90.0,10 0 1,1 -180,0 z" fill="#fff2cc" stroke="#d6b656"/><ellipse cx="820.0" cy="450" rx="90.0" ry="10" fill="#fff2cc" stroke="#d6b656"/>
<text x="820.0" y="482.5" text-anchor="middle" font-size="12" font-weight="bold" fill="#222">Read replicas</text>
<text x="820.0" y="497.5" text-anchor="middle" font-size="12" font-weight="normal" fill="#222">dashboard reads</text>
<path d="M950,310 a60.0,10 0 1,1 120,0 v80 a60.0,10 0 1,1 -120,0 z" fill="#fff2cc" stroke="#d6b656"/><ellipse cx="1010.0" cy="310" rx="60.0" ry="10" fill="#fff2cc" stroke="#d6b656"/>
<text x="1010.0" y="345.0" text-anchor="middle" font-size="12" font-weight="bold" fill="#222">Object storage</text>
<text x="1010.0" y="360.0" text-anchor="middle" font-size="12" font-weight="normal" fill="#222">uploads, presigned;</text>
<text x="1010.0" y="375.0" text-anchor="middle" font-size="12" font-weight="normal" fill="#222">parsed by a worker</text>
<path d="M160.0,90 V110.0 H160.0 V130" fill="none" stroke="#444" stroke-width="1.4" marker-end="url(#arrow)"/>
<path d="M160.0,174 V202.0 H160.0 V230" fill="none" stroke="#444" stroke-width="1.4" marker-end="url(#arrow)"/>
<path d="M30,152 L15,152 L15,395 L30,395" fill="none" stroke="#444" stroke-width="1.4" marker-end="url(#arrow)"/>
<text x="75" y="335" text-anchor="middle" font-size="11" fill="#444" stroke="#fff" stroke-width="4" paint-order="stroke">long responses</text>
<path d="M290,265 L320,265 L320,205 L700,205 L700,252 L730,252" fill="none" stroke="#444" stroke-width="1.4" marker-end="url(#arrow)"/>
<text x="510" y="200" text-anchor="middle" font-size="11" fill="#444" stroke="#fff" stroke-width="4" paint-order="stroke">SQL, pooled</text>
<path d="M820.0,274 V287.0 H820.0 V300" fill="none" stroke="#444" stroke-width="1.4" marker-end="url(#arrow)"/>
<path d="M160,300 L160,330 L450,330 L450,360" fill="none" stroke="#444" stroke-width="1.4" marker-end="url(#arrow)"/>
<text x="305" y="325" text-anchor="middle" font-size="11" fill="#444" stroke="#fff" stroke-width="4" paint-order="stroke">counters</text>
<path d="M510.0,300 V330.0 H510.0 V360" fill="none" stroke="#444" stroke-width="1.4" marker-end="url(#arrow)"/>
<text x="516.0" y="326.0" text-anchor="start" font-size="11" fill="#444" stroke="#fff" stroke-width="4" paint-order="stroke">throttle bucket</text>
<path d="M640,265 L690,265 L690,350 L730,350" fill="none" stroke="#444" stroke-width="1.4" marker-end="url(#arrow)"/>
<text x="690" y="315" text-anchor="middle" font-size="11" fill="#444" stroke="#fff" stroke-width="4" paint-order="stroke">claim · write</text>
<path d="M640,285 L660,285 L660,500 L640,500" fill="none" stroke="#444" stroke-width="1.4" marker-end="url(#arrow)"/>
<text x="660" y="415" text-anchor="middle" font-size="11" fill="#444" stroke="#fff" stroke-width="4" paint-order="stroke">1 req/s</text>
<path d="M640,245 L670,245 L670,190 L1010,190 L1010,300" fill="none" stroke="#444" stroke-width="1.4" marker-end="url(#arrow)"/>
<text x="850" y="185" text-anchor="middle" font-size="11" fill="#444" stroke="#fff" stroke-width="4" paint-order="stroke">parse uploads</text>
<path d="M820.0,400 V420.0 H820.0 V440" fill="none" stroke="#444" stroke-width="1.4" marker-end="url(#arrow)"/>
<text x="826.0" y="416.0" text-anchor="start" font-size="11" fill="#444" stroke="#fff" stroke-width="4" paint-order="stroke">replication</text>
</svg>